<svg xmlns="http://www.w3.org/2000/svg" viewBox="0 0 798.54 345.91"><defs><style>.cls-1{fill:#a8aaad;}.cls-2{fill:#971e1f;}.cls-3{fill:none;}</style></defs><g id="Layer_2" data-name="Layer 2"><g id="Layer_1-2" data-name="Layer 1"><path class="cls-1" d="M342.13,208.08v5.55H284.42v-5.55q7.72-1.85,9.66-3.47,3.14-2.78,3.14-10.42v-68q0-7.41-2.54-9.84t-10.26-3.82v-5.55h46.36v87.95c0,4.16.73,7.29,2.18,9.37S337.46,207.62,342.13,208.08Z"/><path class="cls-1" d="M438,202.91v4.4q-19,2.12-25.21,3.07a144.09,144.09,0,0,0-14.75,3.25V200.8q-6.76,6.81-11.07,9.14-6.76,3.69-17.42,3.69-13.94,0-24.38-11.51-11.49-12.48-11.48-32.64,0-23.59,12.5-37.24,11.07-12.09,27.05-12.09a29.08,29.08,0,0,1,11.79,2.3q5.22,2.3,12.39,9.58V97.12q0-7.25-3.17-9.16t-12.4-1.91V81.26h44.06v110.5c0,3.46.54,6,1.64,7.49Q430.22,202.91,438,202.91Zm-40.58-13.45V142.79a31.44,31.44,0,0,0-3.68-6,15.71,15.71,0,0,0-12.3-6q-10.05,0-14.14,11-3.29,8.64-3.28,25,0,14.4,2.05,22.09,3.69,14,14.35,14,6.13,0,12.09-6Q397.43,192,397.43,189.46Z"/><path class="cls-1" d="M505.31,183l4.93,3.09q-9.25,15.19-18.61,21.36t-22.1,6.16A37,37,0,0,1,441,200.93q-13.15-14.69-13.15-41,0-23.65,12.13-38.34t30.22-14.68q18.09,0,28,12.46,11.1,14,11.1,37.39H457.4q0,16.92,4.94,27.47,6.36,13.63,19.73,13.63a21.33,21.33,0,0,0,11.41-3.22Q498.73,191.46,505.31,183ZM456.37,148.7h27.55q0-8.53-.3-14.1a53.51,53.51,0,0,0-1.55-10.39,18,18,0,0,0-3.29-7.21,9.85,9.85,0,0,0-7.81-3.28,10.74,10.74,0,0,0-10.07,6.12Q456.37,128.15,456.37,148.7Z"/><path class="cls-1" d="M571.13,178.5q-4.17,9.15-7.12,12a9.62,9.62,0,0,1-6.89,2.85c-4.26,0-7.12-2.18-8.6-6.57-.66-1.9-1-5.14-1-9.71V79.16h21.18a1.92,1.92,0,0,0,1.92-1.92V66.45h0a1.92,1.92,0,0,0-1.92-1.92H547.54V16.25h-6.15a334.81,334.81,0,0,1-21.87,32.28,211.83,211.83,0,0,1-16,17.92H263.29V31.2a53.59,53.59,0,0,1,1.48-14.15Q267.11,9,273.69,9a7.72,7.72,0,0,1,4.46,1.3,4.7,4.7,0,0,1,1.91,4.19q0,1.73-2.34,7.22a25,25,0,0,0-2.33,9.53,19.54,19.54,0,0,0,3.18,10.55,10.34,10.34,0,0,0,9.34,5,11.3,11.3,0,0,0,9.87-5q3.51-5.05,3.5-12.86,0-13.86-9.55-22A29.19,29.19,0,0,0,272.41,0q-25.26,0-33.75,22.82-4.87,13.31-4.88,43.63H223.3a1.61,1.61,0,0,0-1.62,1.62v9.48a1.61,1.61,0,0,0,1.62,1.61h10.48v110.2q0,10.41-3.4,14.16-1.9,2-8.7,3.18v6.93h59v-7.22q-10.81,0-14.11-4t-3.29-18.73V79.16H513.37V183.64a36.63,36.63,0,0,0,3.94,17.43q6.87,12.57,23.84,12.56,14.75,0,24.58-11.42,5.64-6.57,11.55-20.57Z"/><circle class="cls-2" cx="311.23" cy="73.36" r="28.86"/><path class="cls-3" d="M489.52,269.89a5.3,5.3,0,0,0-1.7,3.93v2.65h8.87v-7.24a5.41,5.41,0,0,0-3.22-1A5.52,5.52,0,0,0,489.52,269.89Z"/><path class="cls-3" d="M36.79,269.3A5,5,0,0,0,35,271a6.07,6.07,0,0,0-1.15,3.53,4.15,4.15,0,0,0,.06,1l.14,1h7.17v-8.29l-1.26.27A17.35,17.35,0,0,0,36.79,269.3Z"/><path class="cls-3" d="M342.7,267.91a2.87,2.87,0,0,0-.88.27l-.89.2a1,1,0,0,0-.61.34,3.1,3.1,0,0,0-.58.82l-.13,1.09a2.55,2.55,0,0,0,.88,2,3,3,0,0,0-1.09-.2,3.2,3.2,0,0,0-3,1.8,5.54,5.54,0,0,0-.27,1.09v.44l-.07.71h8v-8.84a1.27,1.27,0,0,0-.48.07Z"/><path class="cls-3" d="M82.15,269.3A5,5,0,0,0,80.31,271a6.07,6.07,0,0,0-1.15,3.53,4.15,4.15,0,0,0,.06,1l.14,1h7.17v-8.29l-1.26.27A17.35,17.35,0,0,0,82.15,269.3Z"/><path class="cls-3" d="M697.55,275.22a4.08,4.08,0,0,0-2.93,1.25,5.54,5.54,0,0,0-.73,1.29,4.55,4.55,0,0,0-.32,1.7,4.81,4.81,0,0,0,1,3,3.81,3.81,0,0,0,3.06,1.25,3.66,3.66,0,0,0,3-1.2,4.42,4.42,0,0,0,1-2.91,4.72,4.72,0,0,0-1.12-3A3.62,3.62,0,0,0,697.55,275.22Z"/><path d="M42.74,262.36q-1.64.51-5,1.23a13.68,13.68,0,0,0-4.52,1.73,10.13,10.13,0,0,0-3.4,3.57,7.23,7.23,0,0,0-1,2.89,26.25,26.25,0,0,0-.26,3.74v.71l0,.58v5.85a9,9,0,0,1-.46,2.19A17.53,17.53,0,0,1,27,287.69l-.92,1.67A16.91,16.91,0,0,1,25,290.82a11.23,11.23,0,0,1-2.86,2.11l-.85.44.92.3a1.89,1.89,0,0,0,.88.17l1.67.11a7.54,7.54,0,0,0,5-1.74l1.63-1.63a5.77,5.77,0,0,0,.89-1.09l.71-1.25A11.86,11.86,0,0,0,34,284.63a3.68,3.68,0,0,0,.2-1,2.25,2.25,0,0,0,.07-.58v-.48h12V260.46l-1.33,1A7.13,7.13,0,0,1,42.74,262.36Zm-1.57,14.11H34l-.14-1a4.15,4.15,0,0,1-.06-1A6.07,6.07,0,0,1,35,271a5,5,0,0,1,1.84-1.67,17.35,17.35,0,0,1,3.12-.85l1.26-.27Z"/><path d="M60.72,274.5a4.31,4.31,0,0,0-3.23,1.33,4.45,4.45,0,0,0-1.29,3.23,4.44,4.44,0,0,0,4.52,4.52,4.54,4.54,0,0,0,4.52-4.52,4.37,4.37,0,0,0-1.33-3.23A4.31,4.31,0,0,0,60.72,274.5Z"/><path d="M88.1,262.36q-1.63.51-5,1.23a13.68,13.68,0,0,0-4.52,1.73,10.13,10.13,0,0,0-3.4,3.57,7.23,7.23,0,0,0-1,2.89,26.25,26.25,0,0,0-.26,3.74v.71l0,.58v5.85a9,9,0,0,1-.46,2.19,17.53,17.53,0,0,1-1.14,2.84l-.92,1.67a16.91,16.91,0,0,1-1.15,1.46,11.23,11.23,0,0,1-2.86,2.11l-.85.44.92.3a1.89,1.89,0,0,0,.88.17l1.67.11a7.54,7.54,0,0,0,5-1.74l1.63-1.63a5.77,5.77,0,0,0,.89-1.09l.71-1.25a11.86,11.86,0,0,0,1.09-3.61,3.68,3.68,0,0,0,.2-1,2.25,2.25,0,0,0,.07-.58v-.48h12V260.46l-1.33,1A7.13,7.13,0,0,1,88.1,262.36Zm-1.57,14.11H79.36l-.14-1a4.15,4.15,0,0,1-.06-1A6.07,6.07,0,0,1,80.31,271a5,5,0,0,1,1.84-1.67,17.35,17.35,0,0,1,3.12-.85l1.26-.27Z"/><polygon points="144.06 247.34 140.32 243.43 136.48 247.34 140.32 251.11 144.06 247.34"/><path d="M152,267.57v9h-6.26V260.53l-8.29,8,2.72,1.8v6.29h-7.24V262.67l-8.36,8.09,2.38,1.46.27,1.67a4,4,0,0,1,.23,1.09l0,1,.07.51v1.74l-.11,2.24-.27,1.9-.51,1.7-.58,1.81q-2.45,4-5.77,4.89a2.61,2.61,0,0,1-.82.24l-.65,0-.44.07h-.88l-1.57-.1-1.32-.27-1.46-.62-1-.47a14.36,14.36,0,0,1-3.47-3.91l-.51-1.36-.17-.88v-.3a4.81,4.81,0,0,0,1.32-.93,4.36,4.36,0,0,0,1.32-3.19,4.41,4.41,0,0,0-.85-2.67l1.17-2,1.7-3.13.61-1.36a4.38,4.38,0,0,0,.34-1.16,2.69,2.69,0,0,0,.17-1.15l.07-.68v-.38l-.38-2.14-.41-2-.23-1,0-1,.14-.82.2-.78a5.51,5.51,0,0,1,1.12-1.63l.21-.2a1.53,1.53,0,0,0-.82-.38l-.85-.1a3.43,3.43,0,0,0-3.06,1.53l-.37.55-.24.57-.1,1,.17,1,.41.92-1.33-.21-.81.14-.65.2a3.83,3.83,0,0,0-1.77,3.47,6.26,6.26,0,0,0,1.19,3.71l.14.06.13-1.15.38-1a1.7,1.7,0,0,1,1.46-.89c1.61,0,2.41.72,2.41,2.15a6.31,6.31,0,0,1-.51,2.22c-.34.88-.74,1.79-1.22,2.74l-.83,1.45a4.57,4.57,0,0,0-5.3.83,4.45,4.45,0,0,0-1.29,3.23,4.39,4.39,0,0,0,1.29,3.21,4.23,4.23,0,0,0,2.4,1.24c0,.11,0,.22,0,.34a12.3,12.3,0,0,0,3.4,8.77,15.6,15.6,0,0,0,10.57,4,12,12,0,0,0,9.42-3.84,16.1,16.1,0,0,0,3.6-9.05l.14-1.12h21.31l3.54,3V257.74l-7.92,8Z"/><polygon points="148.01 253.63 144.3 249.89 140.58 253.68 144.3 257.4 148.01 253.63"/><polygon points="140.58 253.68 136.86 249.96 133.18 253.69 136.86 257.47 140.58 253.68"/><polygon points="200.56 255.17 195.9 250.45 191.24 255.17 195.9 259.83 200.56 255.17"/><path d="M204.84,276.64a28,28,0,0,0-1.48-4,19.32,19.32,0,0,0-2-3.28,26.25,26.25,0,0,0-5.17-5.2l-1-.75.34,1,.2.88a7,7,0,0,1,.2,1.53l-.13,1.53-.41,1.6a9.38,9.38,0,0,1-2.51,3.71l2,.68a6.92,6.92,0,0,1,3.35,3.45,12.06,12.06,0,0,1,1.44,5.76l-.07,1.09a11.39,11.39,0,0,1-4.59,8.15,14.29,14.29,0,0,1-9.07,3,2.17,2.17,0,0,0-.82-.07,5,5,0,0,0-1.26-.07l-2-.27,1.87.61a3.66,3.66,0,0,0,1,.34l1.15.34,1.94.41a22.71,22.71,0,0,0,3.67.3,13.41,13.41,0,0,0,11.9-6.46,11.06,11.06,0,0,0,1.46-3.5,12.88,12.88,0,0,0,.55-2.61,4.28,4.28,0,0,0,.13-1.09l0-1.26v-.37a16,16,0,0,0-.21-2.69C205.32,278.61,205.11,277.69,204.84,276.64Z"/><polygon points="318.03 248.66 313.37 243.91 308.61 248.66 313.37 253.39 318.03 248.66"/><path d="M317.28,276.06l-1.46-.74-1.09-.65-1-.78-1.05-.92a6.42,6.42,0,0,1-2.07-4.38l.68-2.21a9.49,9.49,0,0,1,1.77-1.77,4.28,4.28,0,0,1,1.12-.41,3.88,3.88,0,0,1,1.22-.14,6.51,6.51,0,0,1,2.89.6,6.36,6.36,0,0,1,2.21,1.85,3.78,3.78,0,0,0,.88-2.38l-.13-1.15a6.65,6.65,0,0,0-.51-1.53l-.41-.45-.61-.47A12,12,0,0,0,321.6,258l.37-.85.24-.85.1-1.36a6.61,6.61,0,0,0-1.6-4.18l.07.34V252a8.13,8.13,0,0,1-.2,1.67,4.55,4.55,0,0,1-3.06,2.79l-1.6.47-1.56.31a13.5,13.5,0,0,1-3.54.27,10.35,10.35,0,0,0-4.83,3.7,9.16,9.16,0,0,0-1.42,5,10.77,10.77,0,0,0,.44,3,14.93,14.93,0,0,0,1.32,2.86,13.07,13.07,0,0,0,4.29,4.25l.61.2H216.79V239.28l-8.19,8.23,2.72,1.66v33.42H327.75v-6.12h-9.48Z"/><polygon points="382.03 292.79 386.75 297.48 391.41 292.79 386.75 288 382.03 292.79"/><path d="M405.15,249v27.43H391.61V262.13l-8.29,8.22,2.18,2v4.11h-36V259.41l-1.26.81a15.08,15.08,0,0,1-2.41,1.16l-3.16.41-1.4.1h-.44l-1.53.13a3.07,3.07,0,0,0-1.16.65,5.53,5.53,0,0,0-1.49,1.9l-.1.51a7.2,7.2,0,0,0-.07,1.5,12.13,12.13,0,0,0,.2,2.07h-1.15l-.62.07A5.56,5.56,0,0,0,332.4,270a4.43,4.43,0,0,0-1.24,2c-.17.65-.28,1.11-.33,1.36s-.08.49-.11.73a4,4,0,0,0-.05.68v.66l-.11,1.8v5.37H344.2v1.06a9.24,9.24,0,0,1-5,8.14,11.31,11.31,0,0,1-5.54,1.44l-1.49-.13-1.36-.34-1.67-.62,1,.75a12.9,12.9,0,0,0,7.55,2.59,12.71,12.71,0,0,0,6-1.77,11.31,11.31,0,0,0,4.66-4.25,11.55,11.55,0,0,0,1.39-5.75v-1.12h60.92V239.15l-8.26,8.22Zm-61.09,27.43h-8l.07-.71v-.44a5.54,5.54,0,0,1,.27-1.09,3.2,3.2,0,0,1,3-1.8,3,3,0,0,1,1.09.2,2.55,2.55,0,0,1-.88-2l.13-1.09a3.1,3.1,0,0,1,.58-.82,1,1,0,0,1,.61-.34l.89-.2a2.87,2.87,0,0,1,.88-.27l.88-.21a1.27,1.27,0,0,1,.48-.07Z"/><polygon points="431.34 282.66 436.92 282.66 436.92 249.24 439.6 247.58 431.34 239.35 431.34 282.66"/><polygon points="499.11 248.8 494.93 244.48 490.58 248.9 494.93 253.25 499.11 248.8"/><polygon points="490.58 248.9 486.22 244.55 481.97 248.87 486.22 253.32 490.58 248.9"/><polygon points="549.73 292.96 553.98 297.35 558.33 292.96 553.98 288.64 549.73 292.96"/><path d="M564.11,276.47V261.92L555.88,270l2.45,1.67v4.82H502.81V251.11l-8.29,6,2.17,2.1v4.52l-1.08-.4a1.25,1.25,0,0,0-.82-.17,2.64,2.64,0,0,0-1.22-.17l-1.06,0a10.52,10.52,0,0,0-9.11,5.58l-.51,1-.27.78-.34,1.09-.1,1.09L482,274v8.6h91.79l0-6.08Zm-67.42,0h-8.87v-2.65a5.3,5.3,0,0,1,1.7-3.93,5.52,5.52,0,0,1,4-1.64,5.41,5.41,0,0,1,3.22,1Z"/><polygon points="558.33 292.96 562.68 297.28 566.86 292.89 562.68 288.57 558.33 292.96"/><polygon points="585.8 268.11 585.8 276.47 573.83 276.47 573.83 282.59 591.71 282.59 591.71 258.29 583.49 266.44 585.8 268.11"/><polygon points="587.05 248.53 582.53 243.94 578.01 248.53 582.53 253.05 587.05 248.53"/><polygon points="620.63 239.28 612.43 247.51 615.15 249.17 615.15 282.59 682.62 282.59 682.62 276.47 620.63 276.47 620.63 239.28"/><polygon points="734.13 248.73 729.95 244.41 725.59 248.8 729.95 253.12 734.13 248.73"/><polygon points="725.59 248.8 721.24 244.48 716.99 248.8 721.24 253.19 725.59 248.8"/><path d="M742.59,255.7a9.3,9.3,0,0,0-.92,3.1,8.51,8.51,0,0,0,.21,1.73,14.13,14.13,0,0,1,.91-1.87,5.53,5.53,0,0,1,1.26-1.26,4.92,4.92,0,0,1,1.74-.92,8.7,8.7,0,0,1,3.06-.27h6.49l.07-3.84h-5.17a4,4,0,0,1-2.77-1.31,3.58,3.58,0,0,1-1.34-2.43,1.21,1.21,0,0,1,.2-.71A4.58,4.58,0,0,1,748,247a2.81,2.81,0,0,1,2.28,1.26,2.66,2.66,0,0,0,.34-1.33,2.8,2.8,0,0,1-.07-.88,2.61,2.61,0,0,0-.61-1.12l.54-.62.34-.51a1.36,1.36,0,0,0,.27-.81l.11-.72a3.63,3.63,0,0,0-.92-2.51v1.56a3.42,3.42,0,0,1-2.25,1.6,23.13,23.13,0,0,1-3.46.61,4.33,4.33,0,0,0-2.72,4,4.76,4.76,0,0,0,.27,1.63l.85,1.56a16.56,16.56,0,0,0,3.13,2.08l.2.1A9.05,9.05,0,0,0,742.59,255.7Z"/><path d="M752,268.52v8H730.83V262l-8.64,8.7,2.72,1.6v4.18H706.59a11.45,11.45,0,0,0-3.59-5.06,8.3,8.3,0,0,0-5.11-1.63,11.57,11.57,0,0,0-2.94.45,9.8,9.8,0,0,0-3,1.35,8.3,8.3,0,0,0-3.4,4.89h-6v6.12h6c1,2.56,2.13,4.21,3.54,4.93a10.41,10.41,0,0,0,6.12,1.84,7.89,7.89,0,0,0,5.35-2,9.77,9.77,0,0,0,3.08-4.81h51.4v-24.3l-9.15,7.3Zm-51.31,14a3.66,3.66,0,0,1-3,1.2,3.81,3.81,0,0,1-3.06-1.25,4.81,4.81,0,0,1-1-3,4.55,4.55,0,0,1,.32-1.7,5.54,5.54,0,0,1,.73-1.29,4.08,4.08,0,0,1,2.93-1.25,3.62,3.62,0,0,1,3,1.42,4.72,4.72,0,0,1,1.12,3A4.42,4.42,0,0,1,700.66,282.51Z"/><polygon points="773.49 249.17 776.18 247.51 767.92 239.28 767.92 282.59 773.49 282.59 773.49 249.17"/><path d="M773,297.55a3.89,3.89,0,0,1-2.65-1.22,7,7,0,0,1-1.22-2.32,1.45,1.45,0,0,1,.2-.64,1.9,1.9,0,0,1,1.53-.75,3.12,3.12,0,0,1,2.21,1.05l.21-.74a1.45,1.45,0,0,0,.06-.55v-.47a2.55,2.55,0,0,0-.61-1.3l.48-.51c.25-.18.37-.33.37-.47l.21-.54.1-.55,0-.58a3.15,3.15,0,0,0-.85-2.17l.07.85-.07.54c-.27.84-1.15,1.4-2.65,1.67l-2.79.44c-1.61.86-2.41,2-2.41,3.33q0,2.72,3.91,5.3l.2.14a5.22,5.22,0,0,0-3.57,2.55,6.62,6.62,0,0,0-.81,2.86l.27,1.7c.72-1.68,1.39-2.68,2-3a3.48,3.48,0,0,1,1.47-.85,2.76,2.76,0,0,1,1-.17l.65,0h7.34l.07-3.57Z"/><path d="M0,308.64v-1.4H31.74v11.25H30.39c-.71-3.32-1.71-5.6-3-6.83q-2.69-2.52-9.35-2.52a7.55,7.55,0,0,0-3.21.45c-.55.3-.82,1-.82,2.18v13q4.71,0,6.61-2.47,1.17-1.56,2-5.87H24v18.92h-1.4c-.49-3.66-1.4-6-2.75-7.09A9.21,9.21,0,0,0,14,326.66v13c0,1.72.53,2.84,1.57,3.36a11.54,11.54,0,0,0,4.59.62v1.4H0v-1.4a9.88,9.88,0,0,0,3.64-.79c.86-.52,1.29-1.58,1.29-3.19V312.61c0-1.68-.49-2.8-1.46-3.36A7.31,7.31,0,0,0,0,308.64Z"/><path d="M51.78,343.73v1.35H38.4v-1.35a6.51,6.51,0,0,0,2.24-.84,3.41,3.41,0,0,0,.73-2.52V323.92a3.46,3.46,0,0,0-.59-2.38,4.83,4.83,0,0,0-2.38-.93v-1.34H49.15v21.27a4.11,4.11,0,0,0,.5,2.27A2.79,2.79,0,0,0,51.78,343.73Zm-10.92-33a4.31,4.31,0,0,1,1.23-3.08,4.38,4.38,0,1,1,3.14,7.39,4.26,4.26,0,0,1-3.14-1.23A4.18,4.18,0,0,1,40.86,310.76Z"/><path d="M87.15,342.78v1.29q-5.2.62-6.88.89a39.85,39.85,0,0,0-4,1v-3.75a14.79,14.79,0,0,1-3,2.68,9.41,9.41,0,0,1-4.75,1.07,8.52,8.52,0,0,1-6.66-3.36A14.12,14.12,0,0,1,58.66,333q0-6.88,3.42-10.88a9.36,9.36,0,0,1,7.38-3.53,7.42,7.42,0,0,1,3.22.67,12.24,12.24,0,0,1,3.39,2.8v-10.2c0-1.41-.29-2.3-.87-2.68a7,7,0,0,0-3.38-.55v-1.4h12v32.28a4.07,4.07,0,0,0,.45,2.19A3.22,3.22,0,0,0,87.15,342.78Zm-11.08-3.93V325.21a9.45,9.45,0,0,0-1-1.74,4.18,4.18,0,0,0-3.36-1.74c-1.83,0-3.11,1.07-3.86,3.2a22.91,22.91,0,0,0-.89,7.3,27.83,27.83,0,0,0,.56,6.45q1,4.1,3.91,4.1A4.63,4.63,0,0,0,74.73,341,4.15,4.15,0,0,0,76.07,338.85Z"/><path d="M122.64,342.67V344q-4.73.53-5.63.64a26.67,26.67,0,0,0-5.28,1.27v-3.75a22.26,22.26,0,0,1-3.13,2.39,9.4,9.4,0,0,1-4.79,1.36q-4,0-5.92-2.41a8.41,8.41,0,0,1-1.67-5.44V323.93a4.14,4.14,0,0,0-.5-2.39,3.59,3.59,0,0,0-2.24-.92v-1.35H104v19a6.19,6.19,0,0,0,.39,2.58,2.73,2.73,0,0,0,2.75,1.41,4.84,4.84,0,0,0,2.68-.84,12.74,12.74,0,0,0,1.91-1.63V323.93c0-1.39-.34-2.3-1-2.75a5.91,5.91,0,0,0-2.46-.56v-1.35h11.25v20.15a3.71,3.71,0,0,0,.67,2.46A3.11,3.11,0,0,0,122.64,342.67Z"/><path d="M151,339l1,1a14.82,14.82,0,0,1-4.73,4.37,11.75,11.75,0,0,1-6,1.55,11,11,0,0,1-8.62-3.75,13.18,13.18,0,0,1-3.36-9.09q0-7.51,4.59-11.39a12.94,12.94,0,0,1,8.62-3.08,11.07,11.07,0,0,1,5.82,1.51,5.21,5.21,0,0,1,2.86,4.59,3.33,3.33,0,0,1-1.07,2.69,4.14,4.14,0,0,1-2.74.89,2.76,2.76,0,0,1-2.38-1c-.5-.69-.75-2.27-.75-4.73a1.91,1.91,0,0,0-.73-1.65,2.6,2.6,0,0,0-1.57-.54,3.89,3.89,0,0,0-3.47,2.42,15.19,15.19,0,0,0-1.29,7q0,5.73,2.19,9.07a6.49,6.49,0,0,0,5.59,3.33,6.65,6.65,0,0,0,3.7-1A12.36,12.36,0,0,0,151,339Z"/><path d="M171.23,343.73v1.35H157.85v-1.35a6.51,6.51,0,0,0,2.24-.84,3.41,3.41,0,0,0,.73-2.52V323.92a3.46,3.46,0,0,0-.59-2.38,4.83,4.83,0,0,0-2.38-.93v-1.34H168.6v21.27a4.11,4.11,0,0,0,.5,2.27A2.79,2.79,0,0,0,171.23,343.73Zm-10.92-33a4.31,4.31,0,0,1,1.23-3.08,4.38,4.38,0,1,1,3.14,7.39,4.26,4.26,0,0,1-3.14-1.23A4.18,4.18,0,0,1,160.31,310.76Z"/><path d="M203.19,341.49l.84,1.19a10.13,10.13,0,0,1-2.8,2.38,6.71,6.71,0,0,1-3.36.85,4.49,4.49,0,0,1-3.69-1.36,6.19,6.19,0,0,1-1-2.61,13.07,13.07,0,0,1-5.32,3.35,11.38,11.38,0,0,1-3.58.62,6.28,6.28,0,0,1-4.09-1.4,5.6,5.6,0,0,1-2.07-4.6c0-2.62,1.51-4.78,4.54-6.5a55.5,55.5,0,0,1,10.52-4v-4.09a5.65,5.65,0,0,0-.9-3.54c-.74-.93-2.09-1.4-4-1.4a4.19,4.19,0,0,0-2.35.64,1.77,1.77,0,0,0-.95,1.38,3.28,3.28,0,0,0,.84,1.51,3.62,3.62,0,0,1,.84,2.29,2.94,2.94,0,0,1-1.23,2.41,4.1,4.1,0,0,1-2.52.73,3.67,3.67,0,0,1-2.74-1,3.83,3.83,0,0,1-.95-2.85,5.8,5.8,0,0,1,2.63-4.81q2.85-2.13,7.83-2.13a15.12,15.12,0,0,1,8.09,1.93,6.33,6.33,0,0,1,3.11,5.74v14.61a2.32,2.32,0,0,0,.19,1c.13.28.48.42,1,.42a.77.77,0,0,0,.56-.23Zm-10-2v-8.12a10.16,10.16,0,0,0-5,2.49,5.76,5.76,0,0,0-1.89,4.28,4.76,4.76,0,0,0,.74,2.61,2.39,2.39,0,0,0,2.14,1.14,4,4,0,0,0,2.43-.84A10.4,10.4,0,0,0,193.17,339.48Z"/><path d="M223.17,343.73v1.35H209.79v-1.35a6.41,6.41,0,0,0,2.24-.84,3.37,3.37,0,0,0,.73-2.52V323.92a3.46,3.46,0,0,0-.59-2.38,4.79,4.79,0,0,0-2.38-.93v-1.34h10.75v21.27a4.2,4.2,0,0,0,.5,2.27A2.8,2.8,0,0,0,223.17,343.73Zm-10.91-33a4.31,4.31,0,0,1,1.23-3.08,4.39,4.39,0,0,1,6.18,0,4.37,4.37,0,1,1-7.41,3.1Z"/><path d="M245.17,343.68v1.4H230.28v-1.35a5.63,5.63,0,0,0,2.18-.73,3.35,3.35,0,0,0,.84-2.63V323.92a3.24,3.24,0,0,0-.84-2.63,4.76,4.76,0,0,0-2.18-.68v-1.34h10.58v4.42a19.92,19.92,0,0,1,2.8-3.19,7.09,7.09,0,0,1,4.64-1.9,4.34,4.34,0,0,1,3.75,1.68A4.3,4.3,0,0,1,253,323a4,4,0,0,1-.73,2.4,3.25,3.25,0,0,1-2.85,1.35c-1.2,0-2.34-.75-3.42-2.24a2.1,2.1,0,0,0-1.56-1.07,3,3,0,0,0-2.47,1.79,6.92,6.92,0,0,0-.84,3.52v10.55c0,1.75.26,2.92.79,3.51S243.49,343.68,245.17,343.68Z"/><path d="M279.2,338.08l1.35.79a17.56,17.56,0,0,1-5.07,5.47,11.21,11.21,0,0,1-6,1.57,10.36,10.36,0,0,1-7.78-3.25q-3.58-3.75-3.58-10.49a14.31,14.31,0,0,1,3.3-9.81,10.5,10.5,0,0,1,8.23-3.76,9.39,9.39,0,0,1,7.61,3.19q3,3.58,3,9.57H266.16a16,16,0,0,0,1.34,7,5.68,5.68,0,0,0,5.38,3.48,6.07,6.07,0,0,0,3.1-.82A13,13,0,0,0,279.2,338.08Zm-13.32-8.79h7.5c0-1.46,0-2.66-.08-3.61a13.58,13.58,0,0,0-.42-2.66,4.62,4.62,0,0,0-.9-1.85,2.76,2.76,0,0,0-2.13-.84,3,3,0,0,0-2.74,1.57Q265.88,324,265.88,329.29Z"/><path d="M333.83,342.78v1.29q-5.2.62-6.88.89a40.49,40.49,0,0,0-4,1v-3.75a15.06,15.06,0,0,1-3,2.68,9.47,9.47,0,0,1-4.76,1.07,8.52,8.52,0,0,1-6.66-3.36,14.12,14.12,0,0,1-3.14-9.54q0-6.88,3.42-10.88a9.37,9.37,0,0,1,7.39-3.53,7.41,7.41,0,0,1,3.21.67,12.1,12.1,0,0,1,3.39,2.8v-10.2c0-1.41-.29-2.3-.87-2.68a7,7,0,0,0-3.38-.55v-1.4h12v32.28a4.07,4.07,0,0,0,.45,2.19A3.22,3.22,0,0,0,333.83,342.78Zm-11.08-3.93V325.21a9.45,9.45,0,0,0-1-1.74,4.18,4.18,0,0,0-3.36-1.74q-2.73,0-3.86,3.2a22.91,22.91,0,0,0-.89,7.3,27.83,27.83,0,0,0,.56,6.45q1,4.1,3.91,4.1a4.63,4.63,0,0,0,3.31-1.74A4.15,4.15,0,0,0,322.75,338.85Z"/><path d="M369.32,342.67V344c-3.15.35-5,.56-5.62.64a26.6,26.6,0,0,0-5.29,1.27v-3.75a22.26,22.26,0,0,1-3.13,2.39,9.4,9.4,0,0,1-4.79,1.36q-4,0-5.92-2.41a8.41,8.41,0,0,1-1.67-5.44V323.93a4.14,4.14,0,0,0-.5-2.39,3.59,3.59,0,0,0-2.24-.92v-1.35h10.52v19a6.19,6.19,0,0,0,.39,2.58,2.74,2.74,0,0,0,2.75,1.41,4.84,4.84,0,0,0,2.68-.84,12.26,12.26,0,0,0,1.91-1.63V323.93c0-1.39-.34-2.3-1-2.75a5.86,5.86,0,0,0-2.46-.56v-1.35h11.25v20.15a3.71,3.71,0,0,0,.67,2.46A3.11,3.11,0,0,0,369.32,342.67Z"/><path d="M393.56,345.08v-1.4a5.14,5.14,0,0,0,3.55-1A3.48,3.48,0,0,0,398.2,340V312.39a3.2,3.2,0,0,0-1.51-3.08,8.66,8.66,0,0,0-3.13-.67v-1.4h17.07q10.75,0,16.23,5.93a17.61,17.61,0,0,1,4.54,12.43q0,8.38-4.76,13.6-5.37,5.88-15.39,5.88Zm13.71-33.31v28.1a4,4,0,0,0,.62,2.52,3.38,3.38,0,0,0,2.57.73q5.27,0,8-3.42,3.25-4.14,3.25-13.54a26.94,26.94,0,0,0-1.85-10.42q-2.81-6.6-9.07-6.6c-1.56,0-2.59.28-3.08.84A2.87,2.87,0,0,0,407.27,311.77Z"/><path d="M459.89,338.08l1.34.79a17.67,17.67,0,0,1-5.06,5.47,11.23,11.23,0,0,1-6,1.57,10.36,10.36,0,0,1-7.78-3.25q-3.58-3.75-3.58-10.49a14.31,14.31,0,0,1,3.3-9.81,10.49,10.49,0,0,1,8.23-3.76,9.39,9.39,0,0,1,7.61,3.19q3,3.58,3,9.57h-14.1a15.83,15.83,0,0,0,1.34,7,5.68,5.68,0,0,0,5.37,3.48,6.1,6.1,0,0,0,3.11-.82A13.13,13.13,0,0,0,459.89,338.08Zm-3.14-27.52-7.95,4.9h-3.13l7.67-8.74a4.84,4.84,0,0,1,1.54-1.25,3.43,3.43,0,0,1,1.37-.3,3,3,0,0,1,1.73.44,2.23,2.23,0,0,1,1,2,2.39,2.39,0,0,1-.53,1.65A7.78,7.78,0,0,1,456.75,310.56Zm-10.18,18.73h7.5c0-1.46,0-2.66-.09-3.61a12.23,12.23,0,0,0-.42-2.66,4.49,4.49,0,0,0-.89-1.85,2.78,2.78,0,0,0-2.13-.84,3,3,0,0,0-2.74,1.57Q446.57,324,446.57,329.29Z"/><path d="M483.51,319.27v2.46h-5.26v16.85a5.62,5.62,0,0,0,.22,1.9,1.92,1.92,0,0,0,2,1.29,2.34,2.34,0,0,0,1.57-.56,8.12,8.12,0,0,0,1.62-2.35l1.4.62a15.13,15.13,0,0,1-2.63,4,7.61,7.61,0,0,1-5.6,2.24q-3.85,0-5.43-2.47a6.42,6.42,0,0,1-.89-3.41V321.73h-2.91v-1.51a48.25,48.25,0,0,0,4.31-4.08,65.7,65.7,0,0,0,5-6.33h1.4v9.46Z"/><path d="M505.79,343.68v1.4H490.9v-1.35a5.63,5.63,0,0,0,2.18-.73,3.35,3.35,0,0,0,.84-2.63V323.92a3.24,3.24,0,0,0-.84-2.63,4.76,4.76,0,0,0-2.18-.68v-1.34h10.58v4.42a19.92,19.92,0,0,1,2.8-3.19,7.09,7.09,0,0,1,4.64-1.9,4.34,4.34,0,0,1,3.75,1.68,4.3,4.3,0,0,1,.9,2.69,4,4,0,0,1-.73,2.4,3.26,3.26,0,0,1-2.85,1.35c-1.2,0-2.34-.75-3.42-2.24a2.1,2.1,0,0,0-1.57-1.07,3,3,0,0,0-2.46,1.79,6.92,6.92,0,0,0-.84,3.52v10.55c0,1.75.26,2.92.79,3.51S504.11,343.68,505.79,343.68Z"/><path d="M518.72,332.28a14.2,14.2,0,0,1,3.5-9.64,11.53,11.53,0,0,1,9.15-4,11.7,11.7,0,0,1,9,3.9,15.19,15.19,0,0,1,.05,19.46,12.54,12.54,0,0,1-18.27,0A14.13,14.13,0,0,1,518.72,332.28Zm8.23,0a39.21,39.21,0,0,0,.56,8.2c.63,2.47,1.94,3.7,3.91,3.7,1.76,0,3-1.09,3.59-3.26a35.58,35.58,0,0,0,.72-8.64c0-4.41-.3-7.5-.92-9.28a3.46,3.46,0,0,0-3.44-2.67q-2.8,0-3.75,3.54A36.55,36.55,0,0,0,527,332.28Z"/><path d="M563.78,343.73v1.35H550.4v-1.35a6.51,6.51,0,0,0,2.24-.84,3.41,3.41,0,0,0,.73-2.52V323.92a3.46,3.46,0,0,0-.59-2.38,4.83,4.83,0,0,0-2.38-.93v-1.34h10.75v21.27a4.2,4.2,0,0,0,.5,2.27A2.8,2.8,0,0,0,563.78,343.73Zm-10.92-33a4.31,4.31,0,0,1,1.23-3.08,4.38,4.38,0,1,1,3.14,7.39,4.26,4.26,0,0,1-3.14-1.23A4.18,4.18,0,0,1,552.86,310.76Z"/><path d="M586.34,319.27v2.46h-5.27v16.85a5.56,5.56,0,0,0,.23,1.9,1.91,1.91,0,0,0,2,1.29,2.32,2.32,0,0,0,1.56-.56,8.3,8.3,0,0,0,1.63-2.35l1.4.62a15.63,15.63,0,0,1-2.63,4,7.62,7.62,0,0,1-5.6,2.24q-3.87,0-5.43-2.47a6.33,6.33,0,0,1-.9-3.41V321.73h-2.91v-1.51a46.92,46.92,0,0,0,4.31-4.08,65.7,65.7,0,0,0,5-6.33h1.4v9.46Z"/><path d="M625,326.72h-1.4a10,10,0,0,0-2.68-4.62,6.08,6.08,0,0,0-4.26-1.65,3.63,3.63,0,0,0-2.52.95,3,3,0,0,0-1.06,2.24q0,2.42,6.55,5.5t6.55,8.14a8.37,8.37,0,0,1-2.39,6.33,8.75,8.75,0,0,1-6.35,2.3,13.52,13.52,0,0,1-3.28-.52l-3.78-1.15c-.49,0-1,.56-1.51,1.67h-1.39v-9.23h1.56a10.24,10.24,0,0,0,2.75,5.47,7.08,7.08,0,0,0,5.08,1.86,3.73,3.73,0,0,0,2.94-1.12,3.8,3.8,0,0,0,1-2.58c0-1.38-1.14-2.68-3.42-3.87q-6.21-3.26-6.44-3.42a7.46,7.46,0,0,1-3.47-6.17,7.67,7.67,0,0,1,2.52-6,9.12,9.12,0,0,1,6.38-2.3,13.12,13.12,0,0,1,2.91.33c1,.23,2,.49,3.08.79a1.48,1.48,0,0,0,1.4-1.12H625Z"/><path d="M641.36,341.13a4.62,4.62,0,0,1,1.37-3.31,4.43,4.43,0,0,1,3.33-1.42,4.76,4.76,0,0,1,4.76,4.73,4.45,4.45,0,0,1-1.4,3.34,4.68,4.68,0,0,1-3.36,1.33,4.56,4.56,0,0,1-4.7-4.67Z"/><path d="M690.73,341.49l.84,1.19a10.13,10.13,0,0,1-2.8,2.38,6.71,6.71,0,0,1-3.36.85,4.49,4.49,0,0,1-3.69-1.36,6.19,6.19,0,0,1-1-2.61,13.07,13.07,0,0,1-5.32,3.35,11.38,11.38,0,0,1-3.58.62,6.28,6.28,0,0,1-4.09-1.4,5.6,5.6,0,0,1-2.07-4.6c0-2.62,1.51-4.78,4.54-6.5a55.5,55.5,0,0,1,10.52-4v-4.09a5.65,5.65,0,0,0-.9-3.54c-.74-.93-2.09-1.4-4-1.4a4.19,4.19,0,0,0-2.35.64,1.77,1.77,0,0,0-.95,1.38,3.28,3.28,0,0,0,.84,1.51,3.62,3.62,0,0,1,.84,2.29,2.94,2.94,0,0,1-1.23,2.41,4.1,4.1,0,0,1-2.52.73,3.67,3.67,0,0,1-2.74-1,3.83,3.83,0,0,1-.95-2.85,5.8,5.8,0,0,1,2.63-4.81q2.85-2.13,7.83-2.13a15.12,15.12,0,0,1,8.09,1.93,6.33,6.33,0,0,1,3.11,5.74v14.61a2.32,2.32,0,0,0,.19,1c.13.28.48.42,1,.42a.77.77,0,0,0,.56-.23Zm-10-2v-8.12a10.16,10.16,0,0,0-5,2.49,5.76,5.76,0,0,0-1.89,4.28,4.76,4.76,0,0,0,.74,2.61,2.39,2.39,0,0,0,2.14,1.14,4,4,0,0,0,2.43-.84A10.4,10.4,0,0,0,680.71,339.48Z"/><path d="M705.73,341.13a4.62,4.62,0,0,1,1.37-3.31,4.45,4.45,0,0,1,3.33-1.42,4.76,4.76,0,0,1,4.76,4.73,4.45,4.45,0,0,1-1.4,3.34,4.68,4.68,0,0,1-3.36,1.33,4.56,4.56,0,0,1-4.7-4.67Z"/><path d="M745.14,343.68v1.4H730.25v-1.35a5.7,5.7,0,0,0,2.18-.73,3.35,3.35,0,0,0,.84-2.63V323.92a3.24,3.24,0,0,0-.84-2.63,4.76,4.76,0,0,0-2.18-.68v-1.34h10.58v4.42a20.46,20.46,0,0,1,2.79-3.19,7.14,7.14,0,0,1,4.65-1.9,4.34,4.34,0,0,1,3.75,1.68,4.3,4.3,0,0,1,.9,2.69,4,4,0,0,1-.73,2.4,3.28,3.28,0,0,1-2.86,1.35c-1.19,0-2.33-.75-3.41-2.24a2.12,2.12,0,0,0-1.57-1.07,3,3,0,0,0-2.46,1.79,6.92,6.92,0,0,0-.84,3.52v10.55q0,2.63.78,3.51C742.36,343.38,743.46,343.68,745.14,343.68Z"/><path d="M761.37,341.13a4.62,4.62,0,0,1,1.37-3.31,4.43,4.43,0,0,1,3.33-1.42,4.76,4.76,0,0,1,4.76,4.73,4.45,4.45,0,0,1-1.4,3.34,4.68,4.68,0,0,1-3.36,1.33,4.56,4.56,0,0,1-4.7-4.67Z"/><path d="M798.54,343.68v1.4H785.16v-1.4a2.53,2.53,0,0,0,2.24-1.18,3.88,3.88,0,0,0,.61-2.17V311.87a3.51,3.51,0,0,0-.75-2.37,2.64,2.64,0,0,0-2.1-.86v-1.4h10.63v33.08a4.46,4.46,0,0,0,.59,2.43A2.35,2.35,0,0,0,798.54,343.68Z"/></g></g></svg>